<svg width="1000" height="1000" viewBox="0 0 1000 1000" fill="none" xmlns="http://www.w3.org/2000/svg">
<rect width="1000" height="1000" rx="24" fill="#FFCC00"/>
<path fill-rule="evenodd" clip-rule="evenodd" d="M569.968 118.103C556.565 119.993 533.247 123.166 504.468 127.015C496.218 128.118 474.168 131.086 455.468 133.609C436.768 136.132 416.743 138.807 410.968 139.554C365.538 145.429 351.314 147.352 304.043 154.016C300.509 154.514 297.087 155.502 296.438 156.211C279.937 174.252 262.731 193.279 256.48 200.4C252.086 205.405 245.303 212.875 241.405 217C237.507 221.125 229.666 229.675 223.98 236C214.138 246.948 194.896 267.824 188.468 274.529C186.818 276.25 180.743 282.779 174.968 289.038C169.193 295.298 161.283 303.812 157.39 307.959C153.497 312.107 147.447 318.65 143.947 322.5C140.446 326.35 134.603 332.65 130.961 336.5C122.693 345.242 111.684 357.062 97.468 372.462C91.418 379.015 82.77 388.23 78.25 392.939C73.729 397.647 70.017 402.287 70 403.248C69.982 404.21 75.256 410.298 81.718 416.778C92.679 427.768 120.082 456.427 134.968 472.469C138.543 476.321 144.659 482.854 148.558 486.987C152.458 491.119 158.508 497.65 162.003 501.5C165.498 505.35 169.282 509.423 170.413 510.551C171.543 511.679 175.354 515.729 178.882 519.551C182.41 523.373 189.681 531.225 195.041 537C200.401 542.775 211.442 554.7 219.576 563.5C227.71 572.3 234.641 579.725 234.977 580C235.313 580.275 244.974 590.625 256.447 603C267.919 615.375 280.942 629.344 285.387 634.042C306.195 656.038 376.827 732.126 407.36 765.436C412.369 770.901 417.593 776.547 418.968 777.982C420.343 779.418 427.768 787.531 435.468 796.013C450.894 813.003 460.642 823.634 468.469 832C471.299 835.025 480.733 845.375 489.435 855C507.444 874.92 516.914 885 517.62 885C517.888 885 520.592 879.712 523.629 873.25C526.666 866.788 530.85 857.9 532.926 853.5C535.002 849.1 539.725 838.75 543.422 830.5C547.119 822.25 552.312 810.775 554.962 805C557.612 799.225 561.028 791.575 562.555 788C566.08 779.743 566.728 778.925 569.332 779.449C573.795 780.347 592.801 784.354 630.968 792.444C669.967 800.71 680.426 802.907 702.968 807.563C709.293 808.869 719.643 811.037 725.968 812.381C795.603 827.177 826.262 833.877 837.809 836.82C842.833 838.101 845.259 838.346 845.498 837.596C845.689 836.993 846.73 833.35 847.81 829.5C850.914 818.437 859.914 788.554 864.977 772.5C870.14 756.129 873.964 743.875 875.898 737.5C880.76 721.47 892.502 683.339 895.452 674C897.276 668.225 900.21 658.226 901.974 651.779L905.18 640.058L917.824 639.779L930.468 639.5L930.73 602.917L930.992 566.334L927.97 562.417C924.955 558.508 919.786 552.483 891.468 519.866C883.218 510.363 875.343 501.162 873.968 499.418C870.979 495.627 857.249 479.306 854.74 476.561C852.401 474.003 852.463 473.644 855.933 469.693C858.665 466.581 860.968 462.137 860.968 459.975C860.968 458.286 855.433 453.856 836.968 440.765C826.793 433.551 811.864 422.89 803.792 417.074C795.72 411.258 783.421 402.45 776.462 397.5C769.503 392.55 760.582 386.125 756.638 383.222C752.695 380.319 748.344 377.169 746.97 376.222C734.682 367.751 709.986 348.709 709.976 347.697C709.943 344.346 728.307 324.911 740.819 315.056L748.753 308.806L753.972 287.153C756.842 275.244 759.861 262.8 760.68 259.5C761.499 256.2 763.043 249.9 764.109 245.5C765.176 241.1 766.308 236.488 766.625 235.25C767.057 233.562 766.769 233 765.471 233C764.519 233 758.954 231.846 753.104 230.436C747.254 229.026 736.168 226.352 728.468 224.494C691.968 215.688 679.86 212.774 672.468 211.014C655.183 206.901 643.325 204.139 640.294 203.521C636.949 202.84 635.282 199.864 599.231 130.25L591.852 116L587.66 116.1C585.354 116.155 577.393 117.056 569.968 118.103ZM638.113 217.936C641.608 219 659.318 223.499 677.468 227.933C695.618 232.366 713.843 236.879 717.968 237.961C722.093 239.044 729.89 240.957 735.294 242.214L745.12 244.499L744.483 249C743.562 255.505 740.586 268.255 735.799 286.207L731.61 301.914L727.539 302.89C725.3 303.427 721.539 304.405 719.182 305.064C716.825 305.723 714.711 306.077 714.485 305.851C714.259 305.625 713.713 301.403 713.271 296.47L712.468 287.5L686.968 287.875C672.943 288.081 642.715 288.531 619.795 288.875L578.122 289.5L577.795 331.471L577.468 373.441L597.968 378.658C609.243 381.527 629.718 386.707 643.468 390.169L668.468 396.464L713.409 441.213C757.916 485.53 758.385 485.958 761.909 485.493C763.867 485.235 777.393 484.312 791.968 483.441C806.543 482.57 822.068 481.509 826.468 481.082C830.868 480.655 834.918 480.486 835.468 480.705C836.018 480.924 838.268 483.412 840.468 486.233C842.668 489.055 846.268 493.453 848.468 496.006C850.668 498.56 855.618 504.394 859.468 508.972C863.318 513.549 872.701 524.54 880.318 533.397C887.936 542.254 897.217 553.1 900.944 557.5C904.671 561.9 908.9 566.591 910.344 567.924L912.968 570.349V598.674V627L893.718 627.001C883.131 627.002 817.85 627.302 748.65 627.667L622.831 628.331L623.424 622.415C623.751 619.162 624.906 604.125 625.992 589C629.42 541.251 632.448 501.681 635.53 464.342C636.055 457.984 635.917 457.121 634.295 456.627C633.29 456.32 614.468 451.311 592.468 445.496C570.468 439.68 546.843 433.421 539.968 431.586C533.093 429.751 521.843 426.779 514.968 424.981C508.093 423.183 501.903 421.269 501.213 420.729C500.219 419.951 500.011 401.006 500.213 329.757L500.468 239.767L536.968 232.479C557.043 228.47 580.893 223.808 589.968 222.119C599.043 220.431 609.843 218.406 613.968 217.62C624.491 215.615 630.762 215.697 638.113 217.936ZM331.968 332.262C364.942 346.357 373.62 350 374.224 350C374.556 350 377.672 351.273 381.148 352.83C384.624 354.386 389.381 356.48 391.718 357.482L395.968 359.304V371.152V383H362.455H328.942L329.205 418.25L329.468 453.5L340.218 453.784L350.968 454.068V439.534V425H378.968H406.968V464.861V504.723L345.718 504.317C312.031 504.093 283.962 503.741 283.343 503.535C282.725 503.328 281.902 500.986 281.515 498.33C281.128 495.673 279.244 485.4 277.328 475.5C275.413 465.6 273.023 453.225 272.018 448C267.913 426.667 261.671 396.543 257.824 379.503L255.793 370.506L262.513 364.503C266.209 361.201 278.511 350.573 289.851 340.885C306.662 326.523 310.837 323.41 312.468 324.026C313.568 324.442 322.343 328.148 331.968 332.262Z" fill="black"/>
</svg>
